<svg viewBox="0 0 50 50" xmlns="http://www.w3.org/2000/svg" xmlns:xlink="http://www.w3.org/1999/xlink" version="1.1"
     class="jsx-2263963463 artboard-inner" style="width: 300px; height: 300px; max-height: 100%;">
    <g transform="translate(25 24.75) scale(1.4285714285714286)" id="lockup4-icon">
        <g fill="#FFFFFF">
            <g transform="translate(-17.5 -17.325) scale(0.3431372549019608)" id="container">
                <g fill="#FFFFFF">
                    <polygon vector-effect="non-scaling-stroke" points="1 101 101 101 101 1 1 1"></polygon>
                </g>
            </g>
            <g transform="translate(-10.2 -9.136564011510439) scale(0.20408579766934015)" id="icon">
                <g fill="#ec1436">
                    <path d="M 78.191 14.750001 L 41.031 51.91 L 56.402 51.91 C 57.6715 51.91 58.698902 52.9373 58.698902 54.206898 C 58.698902 54.378784 58.679375 54.54284 58.644207 54.70299 L 53.99581 80.97999 L 91.155815 43.819984 L 75.78481 43.819984 C 74.51531 43.819984 73.487915 42.79269 73.487915 41.52309 C 73.487915 41.35121 73.50745 41.18715 73.5426 41.027 Z M 3.296 94.324 C 2.0265 94.324 0.9991 93.2967 0.9991 92.02709 C 0.9991 90.7576 2.0264 89.7302 3.296 89.7302 L 37.194 89.7302 C 38.4635 89.7302 39.4909 90.7575 39.4909 92.02709 C 39.4909 93.2966 38.4636 94.324 37.194 94.324 Z M 8.5616 69.297 C 7.2921 69.297 6.2647 68.2697 6.2647 67.0001 C 6.2647 65.7305 7.292 64.7032 8.5616 64.7032 L 42.4596 64.7032 C 43.7291 64.7032 44.7565 65.7305 44.7565 67.0001 C 44.7565 68.2657 43.7292 69.297 42.4596 69.297 Z M 13.823299 44.269997 C 12.5538 44.269997 11.5264 43.242702 11.5264 41.9731 C 11.5264 40.7036 12.5536995 39.6762 13.823299 39.6762 L 25.8313 39.6762 C 27.1008 39.6762 28.1282 40.7035 28.1282 41.9731 C 28.1282 43.2426 27.1009 44.269997 25.8313 44.269997 Z M 19.0889 19.243 C 17.8194 19.243 16.792 18.2157 16.792 16.9461 C 16.792 15.6766 17.8193 14.6492 19.0889 14.6492 L 52.9869 14.6492 C 54.2564 14.6492 55.2838 15.6765 55.2838 16.9461 C 55.2838 18.2156 54.2565 19.243 52.9869 19.243 Z M 33.8619 52.583 L 80.0999 6.345 C 80.61162 5.8371906 81.3538 5.57547 82.1194 5.70828 C 83.3655 5.9270306 84.2014 7.11448 83.9866 8.36448 L 78.5257 39.22348 L 96.7017 39.22348 C 97.29154 39.22348 97.8775 39.45004 98.3228 39.89536 C 99.22124 40.7938 99.22124 42.24696 98.3228 43.14536 L 52.088795 89.37936 C 51.577076 89.89108 50.834896 90.14889 50.069298 90.01998 C 48.8232 89.80124 47.983402 88.61378 48.202095 87.36378 L 53.6591 56.50478 L 35.4831 56.50478 C 34.89326 56.50478 34.3073 56.27822 33.862 55.832897 C 32.96356 54.93446 32.96356 53.4852 33.862 52.5868 Z"
                          transform="translate(-1 -5.674)"></path>
                </g>
            </g>
        </g>
    </g>
</svg>